<?xml version="1.0" standalone="no"?>
<!DOCTYPE svg PUBLIC "-//W3C//DTD SVG 20010904//EN"
 "http://www.w3.org/TR/2001/REC-SVG-20010904/DTD/svg10.dtd">
<svg version="1.0" xmlns="http://www.w3.org/2000/svg"
 width="700.000000pt" height="700.000000pt" viewBox="0 0 700.000000 700.000000"
 preserveAspectRatio="xMidYMid meet">
<metadata>
Created by potrace 1.15, written by Peter Selinger 2001-2017
</metadata>
<g transform="translate(0.000000,700.000000) scale(0.100000,-0.100000)"
fill="#000000" stroke="none">
<path d="M0 4380 l0 -2620 20 0 c30 0 92 -28 86 -38 -8 -13 60 -75 96 -87 24
-8 34 -18 41 -45 5 -19 13 -38 19 -41 5 -3 9 -10 8 -15 -2 -8 73 -36 149 -54
47 -12 108 18 68 33 -7 2 -23 25 -35 51 -13 25 -27 46 -31 46 -4 0 -18 23 -31
50 -13 28 -37 59 -54 70 -17 11 -52 34 -77 52 -25 18 -65 47 -89 63 -65 45
-86 67 -92 97 -6 33 -7 33 137 48 127 13 188 5 194 -25 2 -11 9 -24 17 -28 8
-4 14 -17 14 -27 0 -48 49 -100 93 -100 19 0 43 -29 40 -49 -1 -9 19 -31 48
-51 27 -19 70 -60 95 -90 76 -91 231 -220 265 -220 10 0 21 -4 24 -10 3 -5 28
-10 54 -10 62 0 87 23 68 63 -6 15 -15 27 -19 27 -4 0 -19 17 -33 37 -34 50
-32 96 5 155 44 70 88 94 190 102 121 10 169 -12 142 -67 -6 -12 -13 -34 -16
-48 -5 -24 -30 -61 -93 -138 -15 -18 -42 -40 -60 -47 -41 -18 -46 -27 -31 -60
10 -22 10 -28 0 -32 -14 -4 -16 -58 -2 -67 37 -23 63 -141 40 -183 -5 -9 -21
-48 -35 -87 -14 -38 -30 -78 -36 -87 -5 -10 -9 -28 -9 -40 0 -29 -36 -80 -77
-108 -29 -20 -33 -28 -33 -64 0 -34 -7 -50 -35 -81 -32 -37 -35 -38 -52 -23
-20 18 -31 18 -76 0 -16 -7 -31 -12 -33 -12 -3 0 -29 -23 -59 -50 l-52 -51
-89 -5 c-56 -3 -106 0 -134 8 -42 11 -123 58 -135 78 -3 5 -39 27 -79 49 -63
35 -82 41 -133 41 -32 0 -64 -5 -70 -11 -6 -6 -17 -12 -24 -13 -8 -2 -31 -6
-52 -11 l-37 -7 0 -324 0 -324 2061 0 c1958 0 2060 1 2055 18 -3 9 -10 78 -16
152 -6 74 -14 178 -20 230 -5 52 -14 271 -20 485 -10 379 -35 749 -65 1005 -8
69 -26 224 -40 345 -14 121 -30 249 -36 285 -5 36 -15 99 -21 140 -5 41 -15
82 -20 90 -6 10 -7 4 -3 -20 4 -19 9 -58 12 -85 4 -44 2 -51 -14 -52 -16 -1
-19 4 -15 28 3 20 0 29 -9 30 -8 1 -20 2 -28 3 -20 2 -26 26 -7 26 9 0 16 6
16 14 0 8 7 16 15 20 20 7 20 56 0 56 -8 0 -15 -6 -15 -14 0 -8 -4 -17 -9 -20
-15 -10 -43 6 -37 20 3 8 -1 14 -8 14 -14 0 -26 68 -26 153 0 26 -6 60 -14 75
-15 29 -32 133 -28 169 1 12 -6 40 -18 62 -11 22 -20 46 -20 54 0 7 -11 28
-24 45 -31 43 -63 245 -50 319 6 34 41 53 51 27 8 -22 23 -16 23 10 0 12 -11
35 -24 49 -13 14 -21 28 -18 31 3 3 8 23 11 43 5 29 11 37 24 35 9 -2 33 5 52
14 23 11 48 15 70 11 37 -6 45 3 21 22 -8 6 -19 24 -25 39 -6 15 -21 33 -32
41 -12 7 -18 8 -14 2 3 -6 2 -11 -4 -11 -6 0 -16 10 -22 22 -9 17 -9 23 0 26
8 3 5 12 -10 28 -19 21 -21 27 -10 47 7 13 25 28 42 34 16 6 37 25 46 42 10
17 23 31 29 31 21 0 97 62 86 69 -8 5 -4 12 9 21 56 39 56 39 34 40 -12 0 -25
4 -31 10 -6 6 -21 6 -41 1 -19 -6 -35 -5 -40 0 -6 6 -99 10 -213 10 l-203 0
-41 35 c-43 37 -69 40 -100 12 -31 -28 -106 -22 -106 8 0 8 -4 14 -10 14 -5 0
-10 18 -10 40 0 21 -5 51 -12 65 -15 33 3 48 45 40 21 -3 26 -1 20 8 -4 6 -8
32 -9 57 -1 69 -23 102 -86 125 -53 21 -53 21 -59 73 -5 38 -15 61 -38 87 -17
20 -31 41 -31 48 0 7 -7 26 -16 42 -9 17 -20 41 -24 55 -8 23 -8 24 -9 3 -1
-31 -22 -73 -36 -73 -6 0 -18 12 -26 28 l-13 27 -4 -35 c-5 -47 -18 -60 -62
-60 -48 0 -85 34 -100 91 -6 24 -23 85 -37 134 -14 50 -28 108 -30 130 l-4 40
19 -23 c15 -19 20 -21 29 -10 21 26 53 130 53 171 0 23 4 57 9 75 6 18 11 79
13 135 2 89 5 106 25 130 14 17 23 42 23 62 0 18 6 36 13 38 6 3 2 6 -10 6
-31 1 -50 25 -58 70 -5 31 -10 38 -25 34 -10 -3 -26 -13 -35 -23 -9 -10 -23
-16 -31 -13 -19 7 -18 38 2 57 8 9 12 16 7 16 -4 0 -1 6 8 13 11 8 18 37 23
88 6 65 5 77 -8 82 -32 12 -14 35 52 67 37 18 81 42 97 54 17 12 54 33 84 45
59 25 122 63 159 95 22 19 22 23 22 258 l0 238 -337 0 -336 0 7 -217 c4 -120
11 -355 17 -523 6 -168 12 -404 14 -525 10 -546 15 -703 24 -752 6 -32 7 -63
1 -80 -5 -15 -11 -49 -15 -76 -5 -38 -11 -50 -33 -61 -36 -18 -113 -34 -196
-42 -62 -5 -72 -9 -109 -45 -64 -61 -89 -69 -222 -69 -102 0 -122 3 -151 21
-41 25 -42 39 -8 97 24 40 27 59 31 156 2 61 8 172 13 247 14 196 12 366 -5
414 -8 22 -15 49 -15 60 0 11 -7 31 -16 43 -10 15 -16 47 -17 87 -1 36 -6 65
-10 65 -11 0 2 220 20 330 9 52 17 174 19 270 7 347 11 476 19 538 l8 62 -95
0 -95 0 -7 -61 c-9 -93 -7 -234 4 -245 5 -5 10 -33 11 -62 1 -28 5 -52 8 -52
4 0 5 -49 3 -110 -3 -75 0 -110 7 -110 7 0 11 -39 11 -119 0 -74 4 -122 11
-126 6 -4 7 -19 4 -35 -5 -24 -3 -29 17 -33 22 -4 22 -4 1 -6 -21 -1 -21 -4
-21 -147 -1 -80 -2 -148 -5 -150 -2 -2 -35 -7 -73 -10 -38 -3 -75 -7 -81 -9
-19 -6 -81 23 -91 42 -4 10 -8 291 -7 626 l1 607 -693 0 -693 0 0 -2620z
m2929 138 c13 -24 44 -60 70 -80 25 -21 60 -50 77 -65 17 -15 48 -41 69 -58
21 -16 53 -43 71 -58 18 -16 36 -27 40 -26 6 2 61 -42 113 -91 9 -8 29 -23 44
-33 45 -29 67 -50 67 -65 0 -7 -22 -37 -48 -65 -49 -52 -82 -96 -82 -108 0 -4
18 -9 41 -13 52 -8 109 -51 109 -81 0 -12 -13 -56 -29 -96 -37 -92 -76 -237
-102 -377 -15 -79 -22 -181 -29 -392 -5 -157 -12 -332 -15 -390 -3 -58 -10
-229 -15 -380 -10 -267 -28 -551 -36 -559 -2 -2 -6 -2 -8 0 -6 5 -32 135 -57
277 -50 293 -101 592 -109 642 -4 30 -20 110 -34 176 -14 67 -41 215 -61 330
-39 228 -38 219 -89 579 -33 226 -43 304 -77 585 -6 47 -9 121 -6 165 4 87 42
225 61 225 6 0 22 -19 35 -42z m-1952 -3925 c13 -120 20 -106 -151 -288 -42
-44 -76 -85 -76 -92 -1 -46 -208 -86 -250 -48 -13 12 -38 19 -72 20 -70 2 -75
23 -12 55 60 31 81 62 65 96 -18 40 -14 48 32 66 80 31 86 32 114 4 14 -14 34
-26 45 -26 10 0 53 26 95 58 42 31 88 64 102 72 31 18 91 78 91 91 0 17 16 9
17 -8z"/>
<path d="M4497 6843 c12 -242 8 -1029 -6 -1082 -12 -41 -14 -43 -44 -38 -120
21 -153 25 -159 19 -4 -4 -10 -30 -14 -59 -6 -47 -4 -54 20 -76 14 -14 37 -45
50 -70 22 -41 24 -51 17 -134 -5 -57 -14 -99 -24 -114 -10 -13 -17 -37 -17
-54 -1 -53 -28 -157 -48 -184 -10 -14 -33 -30 -50 -35 -38 -11 -40 -18 -52
-188 -6 -86 -19 -172 -34 -230 -16 -59 -22 -96 -16 -102 6 -6 10 -17 10 -25 0
-14 -2 -14 -10 -1 -19 31 -22 -3 -5 -82 9 -46 21 -144 25 -218 5 -76 16 -154
25 -178 16 -46 35 -196 60 -482 57 -641 57 -812 0 -2020 -13 -283 -26 -666
-30 -850 -5 -298 -13 -461 -31 -598 l-5 -42 1420 0 1421 0 0 439 0 438 -59
-30 c-32 -16 -78 -47 -101 -68 -23 -22 -52 -39 -64 -39 -12 0 -37 -5 -56 -10
-46 -14 -175 -13 -201 1 -17 9 -20 17 -15 44 9 44 -17 75 -69 82 -22 3 -51 14
-64 24 -13 11 -30 19 -37 19 -8 0 -14 9 -14 19 0 24 -92 104 -127 111 -14 3
-29 12 -33 20 -61 128 -70 156 -70 204 0 39 3 45 28 51 40 10 72 33 72 53 0 9
-6 29 -14 44 -10 18 -11 29 -3 37 12 12 -22 47 -60 62 -13 5 -25 21 -29 36 -4
15 -26 48 -50 73 -43 45 -89 142 -80 167 4 10 30 13 103 13 142 -1 188 -25
247 -132 14 -26 26 -63 26 -82 0 -50 35 -59 90 -22 22 14 40 30 40 35 0 5 17
20 38 34 20 14 63 50 94 80 35 33 76 62 105 73 27 9 67 36 91 59 23 24 56 49
74 56 17 7 56 35 85 62 l53 50 0 2498 0 2499 -419 0 -419 0 5 -62 c3 -35 6
-198 8 -363 6 -546 16 -930 25 -959 16 -48 12 -130 -10 -179 -18 -39 -19 -55
-12 -109 7 -54 10 -59 16 -35 9 31 26 36 26 7 0 -11 5 -20 10 -20 6 0 10 -10
11 -22 0 -13 3 -17 6 -10 6 14 63 17 63 2 0 -5 8 -10 18 -10 10 0 23 -5 30
-12 8 -8 15 -8 26 1 11 9 16 9 22 -1 12 -19 14 -57 3 -63 -5 -4 -9 -15 -9 -25
0 -28 -26 -38 -108 -38 -52 -1 -71 2 -65 11 13 21 -58 -35 -73 -58 -8 -13 -20
-68 -26 -122 -8 -76 -15 -102 -30 -115 -34 -31 -65 -22 -119 32 -28 27 -75 61
-106 75 -31 14 -67 36 -80 49 -13 13 -50 37 -81 53 -151 78 -182 96 -182 104
0 5 -24 9 -54 9 -76 0 -103 13 -122 57 -14 33 -15 70 -9 298 3 143 10 337 15
430 4 94 11 240 14 325 3 85 10 220 15 300 6 80 13 214 16 298 l6 152 -133 -1
-133 0 -36 -57 c-21 -31 -46 -75 -58 -98 -30 -58 -72 -85 -140 -91 -52 -5 -59
-3 -100 28 -67 52 -82 78 -88 153 l-6 66 -114 0 -115 0 9 -157z m-307 -2456
c13 -24 35 -49 49 -55 48 -19 335 -133 386 -152 229 -85 375 -146 429 -178 21
-12 53 -29 72 -37 26 -11 288 -158 302 -170 1 -1 0 -9 -4 -18 -4 -12 -17 -16
-45 -15 -21 1 -39 4 -39 8 0 8 -87 50 -106 50 -20 0 -160 66 -169 79 -3 6 -14
11 -23 11 -10 0 -33 9 -52 20 -19 11 -59 32 -88 45 -48 23 -109 61 -122 76 -3
3 -19 9 -36 12 -18 3 -49 18 -70 32 -49 33 -76 30 -88 -12 -5 -18 -13 -33 -18
-33 -5 0 2 -11 16 -24 36 -33 33 -62 -11 -102 -35 -33 -54 -37 -82 -20 -11 7
-13 3 -9 -18 5 -24 3 -26 -26 -26 -17 0 -44 -2 -61 -5 -44 -8 -79 25 -80 74 0
30 3 37 18 37 37 -2 42 27 13 72 -14 23 -26 50 -26 59 0 10 -10 26 -22 35 -13
9 -33 36 -45 60 -46 91 -103 217 -103 227 0 24 18 9 40 -32z m394 -702 c26
-19 48 -35 50 -35 3 0 17 -5 33 -12 26 -10 33 -13 48 -17 3 0 -4 -10 -16 -22
-18 -18 -20 -28 -14 -70 6 -40 4 -49 -8 -49 -8 0 -17 7 -20 15 -4 8 -24 26
-46 41 -32 21 -44 24 -55 15 -19 -16 -24 -6 -36 79 -15 103 -7 110 64 55z
m1708 -3022 c10 -15 25 -43 33 -60 12 -28 19 -33 47 -33 18 0 65 12 103 25 83
30 185 35 185 9 0 -22 -18 -53 -54 -95 -50 -59 -66 -81 -98 -137 -17 -29 -39
-57 -49 -63 -26 -13 -114 -1 -171 24 l-48 21 0 62 c0 35 4 74 10 88 8 23 5 30
-25 61 -62 62 -70 106 -23 135 27 16 34 17 51 5 11 -8 28 -27 39 -42z"/>
<path d="M3660 5810 c-19 -3 -45 -13 -58 -21 -20 -12 -22 -20 -17 -54 4 -22
12 -57 18 -78 10 -35 13 -37 38 -32 16 4 34 3 41 -2 7 -4 65 -9 128 -9 63 -1
126 -5 140 -9 22 -6 21 -3 -13 30 l-39 37 -84 -6 c-56 -4 -84 -3 -84 4 0 6 13
13 29 16 27 6 29 9 24 43 -10 63 -55 93 -123 81z"/>
<path d="M3254 5737 c-47 -14 -74 -33 -74 -53 0 -10 15 -14 57 -14 52 0 55 -1
37 -14 -29 -22 -5 -39 67 -46 59 -6 62 -5 72 20 5 14 16 40 24 58 23 54 14 62
-69 61 -40 -1 -92 -6 -114 -12z"/>
<path d="M3376 5327 c-9 -23 -16 -46 -16 -49 0 -10 -41 -50 -71 -69 -28 -19
-89 -136 -89 -172 0 -13 6 -31 13 -41 12 -17 15 -14 32 30 10 27 24 56 31 65
8 8 19 31 25 50 23 66 62 89 87 49 13 -21 66 -28 77 -11 3 6 27 7 53 4 35 -4
58 -1 81 12 19 9 42 15 52 12 19 -5 59 18 59 34 0 18 -67 40 -92 30 -24 -8
-169 2 -188 14 -7 4 -14 -2 -17 -14 -3 -12 -12 -21 -20 -21 -20 0 -10 70 12
86 19 14 20 34 1 34 -7 0 -21 -19 -30 -43z"/>
<path d="M3740 5291 c0 -11 74 -156 89 -175 5 -6 22 -47 37 -91 l29 -80 6 50
c11 80 0 130 -32 161 -16 15 -29 32 -29 37 0 11 -56 77 -82 95 -10 7 -18 9
-18 3z"/>
<path d="M3565 5030 c-124 -13 -236 -83 -250 -156 -5 -31 -2 -38 37 -74 23
-22 47 -40 53 -41 5 -1 79 -2 164 -2 l155 -2 30 31 c51 50 76 85 76 103 0 48
-124 154 -176 150 -11 -1 -50 -5 -89 -9z"/>
<path d="M6965 1827 c-26 -16 -45 -34 -45 -42 0 -4 -11 -20 -24 -35 -13 -16
-23 -39 -22 -52 1 -18 8 -24 41 -29 28 -5 47 -3 63 7 20 13 22 23 22 89 0 41
-3 75 -7 74 -5 0 -17 -6 -28 -12z"/>
<path d="M0 1460 c0 -70 2 -80 18 -80 10 0 34 -12 53 -26 19 -14 49 -32 68
-40 38 -16 127 -19 136 -4 5 9 -65 60 -83 60 -13 0 -92 92 -92 106 0 12 -77
64 -93 64 -4 0 -7 -36 -7 -80z"/>
<path d="M0 1015 c0 -80 2 -145 4 -145 2 0 18 6 36 13 29 13 45 32 69 83 5 11
21 28 35 37 14 10 26 24 26 33 0 16 -48 63 -66 64 -5 0 -31 13 -57 30 l-47 30
0 -145z"/>
</g>
</svg>
